<svg width="1440" height="1142" viewBox="0 0 1440 1142" fill="none" xmlns="http://www.w3.org/2000/svg">
<g clip-path="url(#clip0_149_46)" filter="url(#filter0_d_149_46)">
<path d="M0 1134L1440 1134L1440 0L0 0L0 1134Z" fill="#2E0D5F"/>
<g filter="url(#filter1_f_149_46)">
<path d="M246 -249.9C-54.7191 -249.9 -298.5 91.3933 -298.5 512.4C-298.5 933.407 -54.7191 1274.7 246 1274.7C546.719 1274.7 790.5 933.407 790.5 512.4C790.5 91.3933 546.719 -249.9 246 -249.9Z" fill="#09103B"/>
<path d="M1311 354.9C1010.28 354.9 766.5 696.193 766.5 1117.2C766.5 1538.21 1010.28 1879.5 1311 1879.5C1611.72 1879.5 1855.5 1538.21 1855.5 1117.2C1855.5 696.193 1611.72 354.9 1311 354.9Z" fill="#2E0D5F"/>
<path d="M591 -732.9C290.281 -732.9 46.5 -391.607 46.5 29.4001C46.5 450.407 290.281 791.7 591 791.7C891.719 791.7 1135.5 450.407 1135.5 29.4001C1135.5 -391.607 891.719 -732.9 591 -732.9Z" fill="#09103B"/>
<path d="M1096.5 -533.4C795.781 -533.4 552 -192.106 552 228.9C552 649.907 795.781 991.2 1096.5 991.2C1397.22 991.2 1641 649.907 1641 228.9C1641 -192.106 1397.22 -533.4 1096.5 -533.4Z" fill="#09103B"/>
<path d="M1059 102.9C758.281 102.9 514.5 444.193 514.5 865.2C514.5 1286.21 758.281 1627.5 1059 1627.5C1359.72 1627.5 1603.5 1286.21 1603.5 865.2C1603.5 444.193 1359.72 102.9 1059 102.9Z" fill="#2E0D5F"/>
<path d="M532.5 -119.7C231.781 -119.7 -12 221.593 -12 642.6C-12 1063.61 231.781 1404.9 532.5 1404.9C833.219 1404.9 1077 1063.61 1077 642.6C1077 221.593 833.219 -119.7 532.5 -119.7Z" fill="#09103B"/>
</g>
</g>
<defs>
<filter id="filter0_d_149_46" x="-4" y="0" width="1448" height="1142" filterUnits="userSpaceOnUse" color-interpolation-filters="sRGB">
<feFlood flood-opacity="0" result="BackgroundImageFix"/>
<feColorMatrix in="SourceAlpha" type="matrix" values="0 0 0 0 0 0 0 0 0 0 0 0 0 0 0 0 0 0 127 0" result="hardAlpha"/>
<feOffset dy="4"/>
<feGaussianBlur stdDeviation="2"/>
<feComposite in2="hardAlpha" operator="out"/>
<feColorMatrix type="matrix" values="0 0 0 0 0 0 0 0 0 0 0 0 0 0 0 0 0 0 0.25 0"/>
<feBlend mode="normal" in2="BackgroundImageFix" result="effect1_dropShadow_149_46"/>
<feBlend mode="normal" in="SourceGraphic" in2="effect1_dropShadow_149_46" result="shape"/>
</filter>
<filter id="filter1_f_149_46" x="-624.5" y="-1058.9" width="2806" height="3264.4" filterUnits="userSpaceOnUse" color-interpolation-filters="sRGB">
<feFlood flood-opacity="0" result="BackgroundImageFix"/>
<feBlend mode="normal" in="SourceGraphic" in2="BackgroundImageFix" result="shape"/>
<feGaussianBlur stdDeviation="163" result="effect1_foregroundBlur_149_46"/>
</filter>
<clipPath id="clip0_149_46">
<rect width="1440" height="1134" fill="white" transform="matrix(-1 0 0 -1 1440 1134)"/>
</clipPath>
</defs>
</svg>
