<svg width="1440" height="760" viewBox="0 0 1440 760" fill="none" xmlns="http://www.w3.org/2000/svg">
<g clipPath="url(#clip0_103_43)">
<path d="M1440 0H0V760H1440V0Z" fill="#2E0D5F"/>
<g filter="url(#filter0_f_103_43)">
<path d="M1194 927.482C1494.72 927.482 1738.5 698.749 1738.5 416.593C1738.5 134.436 1494.72 -94.2963 1194 -94.2963C893.281 -94.2963 649.5 134.436 649.5 416.593C649.5 698.749 893.281 927.482 1194 927.482Z" fill="#09103B"/>
<path d="M129 522.148C429.719 522.148 673.5 293.415 673.5 11.2592C673.5 -270.897 429.719 -499.63 129 -499.63C-171.719 -499.63 -415.5 -270.897 -415.5 11.2592C-415.5 293.415 -171.719 522.148 129 522.148Z" fill="#2E0D5F"/>
<path d="M849 1251.19C1149.72 1251.19 1393.5 1022.45 1393.5 740.296C1393.5 458.14 1149.72 229.407 849 229.407C548.281 229.407 304.5 458.14 304.5 740.296C304.5 1022.45 548.281 1251.19 849 1251.19Z" fill="#09103B"/>
<path d="M343.5 1117.48C644.219 1117.48 888 888.749 888 606.593C888 324.436 644.219 95.7037 343.5 95.7037C42.7809 95.7037 -201 324.436 -201 606.593C-201 888.749 42.7809 1117.48 343.5 1117.48Z" fill="#09103B"/>
<path d="M381 691.037C681.719 691.037 925.5 462.304 925.5 180.148C925.5 -102.008 681.719 -330.741 381 -330.741C80.2809 -330.741 -163.5 -102.008 -163.5 180.148C-163.5 462.304 80.2809 691.037 381 691.037Z" fill="#2E0D5F"/>
<path d="M907.5 840.222C1208.22 840.222 1452 611.49 1452 329.333C1452 47.1772 1208.22 -181.556 907.5 -181.556C606.781 -181.556 363 47.1772 363 329.333C363 611.49 606.781 840.222 907.5 840.222Z" fill="#09103B"/>
</g>
</g>
<defs>
<filter id="filter0_f_103_43" x="-741.5" y="-825.63" width="2806" height="2402.81" filterUnits="userSpaceOnUse" color-interpolation-filters="sRGB">
<feFlood flood-opacity="0" result="BackgroundImageFix"/>
<feBlend mode="normal" in="SourceGraphic" in2="BackgroundImageFix" result="shape"/>
<feGaussianBlur stdDeviation="163" result="effect1_foregroundBlur_103_43"/>
</filter>
<clipPath id="clip0_103_43">
<rect width="1440" height="760" fill="white"/>
</clipPath>
</defs>
</svg>
